# xmcd
#
# Track frame offsets: 
#        150
#        11727
#        22992
#        35260
#        45687
#        57022
#        68737
#        79704
#        92370
#        106975
#        118157
#        130737
#        142382
#        153402
#        164412
#        176890
#        187712
#        198042
#        209055
#        222015
#        232234
#        242505
#        253822
#
# Disc length: 3534 seconds
#
# Revision: 1
# Processed by: cddbd v1.4PL0 Copyright (c) Steve Scherf et al.
# Submitted via: ExactAudioCopy v0.90b3
#
DISCID=3f0dcc17
DTITLE=Patsy Cline - Collector's Edition (Golden Classics)
DYEAR=1900
DGENRE=Country
TTITLE0=Walking After Midnight
TTITLE1=Just Out Of Reach
TTITLE2=Poor Man's Roses Of A Rich Man's Gold
TTITLE3=Lovesick Blues
TTITLE4=Crazy Dreams
TTITLE5=Honky Tonk Merry Go Round
TTITLE6=Stop The World And Let Me Off
TTITLE7=Yes I Understand
TTITLE8=A Church, A Courtroom And Then Goodbye
TTITLE9=Hungry For Love
TTITLE10=Just A Closer Walk With Thee
TTITLE11=I've Loved And Lost Again
TTITLE12=A Stranger In My Arms
TTITLE13=I Can't Forget
TTITLE14=Fingerprints
TTITLE15=I Cried All The Way To The Alter
TTITLE16=How Can I Face Tomorrow
TTITLE17=Hidin' Out
TTITLE18=Life's Railway To Heaven
TTITLE19=Three Cigarettes In An Ashtray
TTITLE20=Walkin' Dreams
TTITLE21=That Wonderful Someone
TTITLE22=Dear God
EXTD=
EXTT0=
EXTT1=
EXTT2=
EXTT3=
EXTT4=
EXTT5=
EXTT6=
EXTT7=
EXTT8=
EXTT9=
EXTT10=
EXTT11=
EXTT12=
EXTT13=
EXTT14=
EXTT15=
EXTT16=
EXTT17=
EXTT18=
EXTT19=
EXTT20=
EXTT21=
EXTT22=
PLAYORDER=
